<svg width="256" height="256" viewBox="0 0 256 256" fill="none" xmlns="http://www.w3.org/2000/svg">
  <rect width="256" height="256" rx="56" fill="#1B2024"/>
  <rect x="20" y="20" width="216" height="216" rx="44" fill="#272E33"/>
  <path d="M84 64H128C172.183 64 208 99.8172 208 144C208 177.137 181.137 204 148 204H84V64Z" fill="#A7C080"/>
  <path d="M108 88H128C158.928 88 184 113.072 184 144C184 163.882 167.882 180 148 180H108V88Z" fill="#1B2024"/>
  <path d="M84 64H132C157.405 64 178 84.5949 178 110V110C178 135.405 157.405 156 132 156H84V64Z" fill="#83C092" fill-opacity="0.92"/>
  <path d="M108 88H132C144.15 88 154 97.8497 154 110V110C154 122.15 144.15 132 132 132H108V88Z" fill="#272E33"/>
  <circle cx="180" cy="86" r="10" fill="#DBBC7F" fill-opacity="0.95"/>
</svg>
